<svg viewBox="0 0 360 200" height="200" width="360" preserveAspectRatio="xMidYMid meet" class="" fill="none"><g clip-path="url(#clip0_11581_406869)"><mask id="mask0_11581_406869" maskUnits="userSpaceOnUse" x="0" y="0" width="360" height="200" style="mask-type: luminance;"><path d="M360 0H0V200H360V0Z" fill="white"></path></mask><g mask="url(#mask0_11581_406869)"><path d="M308.6 83.6026C309.6 82.1026 312.6 77.3026 309 71.6026C305.4 65.9026 298.7 63.5026 293.1 65.6026C288.5 67.3026 286.9 72.3026 287 76.1026L308.4 84.0026L308.6 83.8026V83.6026ZM292.7 76.5026C292.7 76.5026 292.7 72.0026 295.7 70.9026C298.9 69.6026 302.5 71.4026 304.3 74.2026C306.2 77.1026 304 79.7026 303.3 81.1026L292.7 76.5026ZM260.6 106.103V134.403C260.6 143.903 256.8 152.503 250.6 158.803L258.9 162.503C267.4 165.903 276 169.103 284.7 171.903C291.4 173.903 302.2 176.703 307.1 170.003C311.3 164.103 313.8 157.303 314.5 150.103L317 129.303L260.6 106.103Z" fill="#FCF5EB" stroke="#316474" stroke-linecap="round" stroke-linejoin="round"></path><path d="M321.5 100.603C321.5 100.603 321.9 92.2033 313.5 85.8033C305.1 79.4033 298.8 77.4033 298.8 77.4033C295.8 76.2033 288 73.5033 282.7 73.4033C277.4 73.2033 272.2 75.4033 270.4 77.9033C267 82.7033 263.8 87.5033 260.6 92.4033V119.903C264.6 122.103 268.8 123.903 273.2 125.403C279 127.403 292.8 133.203 297.2 134.903C301.5 136.303 308.8 139.403 312.7 136.903C316.6 134.303 317.7 126.903 318.5 123.103C319.4 119.203 322.3 107.403 321.5 100.603Z" fill="#FCF5EB" stroke="#316474" stroke-linecap="round" stroke-linejoin="round"></path><path d="M267.1 130.601L266.5 130.101C264.9 129.401 264.2 127.501 265 126.101L267.7 120.601C268.3 119.201 270.1 118.601 271.6 119.401L272.2 119.801C273.7 120.601 274.5 122.401 273.7 123.801L270.9 129.301C270.4 130.801 268.6 131.301 267.1 130.601ZM295.1 141.901L294.5 141.701C292.9 141.001 292.1 139.201 292.7 137.801L294.9 132.101C295.5 130.701 297.3 130.001 298.8 130.701L299.5 131.001C301.1 131.701 301.9 133.501 301.2 134.901L299 140.601C298.4 142.001 296.7 142.601 295.3 142.001C295.2 142.001 295.2 141.901 295.1 141.901Z" fill="#73F38F" stroke="#316474" stroke-linecap="round" stroke-linejoin="round"></path><path d="M62.0997 82.8014C63.3997 86.5014 63.7997 95.3014 60.2997 96.6014C56.8997 97.8014 50.9997 91.0014 49.5997 87.3014C48.1997 83.6014 49.8997 79.6014 53.3997 78.4014C56.8997 77.2014 60.7997 79.1014 62.0997 82.8014Z" fill="white"></path><path d="M321.9 45.8033C321.9 45.8033 329.4 42.0033 332.4 46.0033C335.4 49.9033 334.3 55.3033 325.2 59.9033C319 63.1033 317.6 63.5033 317.6 63.5033C315.4 61.4033 313.4 59.1033 311.6 56.6033C309 53.1033 305.4 44.7033 311.6 41.9033C317.9 39.1033 321.9 45.9033 321.9 45.8033Z" fill="#73F38F" stroke="#316474" stroke-linecap="round" stroke-linejoin="round"></path><path d="M225.5 8.60156H134.5C115.3 8.60156 99.6997 24.2016 99.6997 43.4016V134.402C99.6997 153.602 115.3 169.202 134.5 169.202H225.5C244.7 169.202 260.3 153.602 260.3 134.402V43.4016C260.3 24.2016 244.7 8.60156 225.5 8.60156Z" fill="#06CF9C" fill-opacity="0.15"></path><path d="M181.6 75.3008C173.3 75.3008 166.6 68.6008 166.6 60.3008C166.6 52.0008 173.3 45.3008 181.6 45.3008C189.9 45.3008 196.6 52.0008 196.6 60.3008C196.6 68.6008 189.9 75.3008 181.6 75.3008ZM212.9 88.0008C206.5 88.0008 201.4 82.9008 201.4 76.5008C201.4 70.1008 206.5 65.0008 212.9 65.0008C219.3 65.0008 224.4 70.1008 224.4 76.5008C224.4 82.9008 219.3 88.0008 212.9 88.0008ZM150.3 88.0008C143.9 88.0008 138.8 82.9008 138.8 76.5008C138.8 70.1008 143.9 65.0008 150.3 65.0008C156.7 65.0008 161.8 70.1008 161.8 76.5008C161.8 82.9008 156.7 88.0008 150.3 88.0008Z" fill="#73F38F" stroke="#316474" stroke-linecap="round" stroke-linejoin="round"></path><path d="M80.6998 10.4009C80.5998 13.5009 80.3998 17.8009 79.4998 19.0009C78.3998 20.5009 74.1998 21.5009 70.6998 22.1009C70.0998 22.2009 70.1998 23.1009 70.7998 23.1009C74.0998 23.3009 78.2998 23.6009 79.4998 24.6009C80.6998 25.7009 81.5998 30.0009 82.1998 33.3009C82.2998 33.9009 83.1998 33.8009 83.1998 33.2009C83.3998 29.7009 83.5998 25.3009 84.7998 24.1009C85.8998 22.9009 90.5998 22.1009 93.9998 21.5009C94.5998 21.4009 94.4998 20.5009 93.8998 20.5009C90.4998 20.4009 85.6998 20.2009 84.4998 19.2009C83.1998 18.1009 82.2998 13.8009 81.6998 10.3009C81.5998 9.80085 80.6998 9.80085 80.6998 10.4009ZM21.5998 105.901C21.0998 108.801 20.3998 112.701 19.4998 113.701C18.3998 114.901 14.3998 115.401 10.9998 115.501C10.3998 115.501 10.3998 116.301 10.9998 116.401C13.9998 116.901 17.8998 117.701 18.8998 118.801C19.8998 119.901 20.1998 124.001 20.3998 127.201C20.3998 127.801 21.2998 127.801 21.3998 127.301C21.8998 124.101 22.6998 120.101 23.8998 119.101C24.9998 118.201 29.4998 117.901 32.6998 117.701C33.2998 117.701 33.2998 116.901 32.6998 116.801C29.4998 116.301 25.1998 115.501 24.1998 114.501C23.0998 113.401 22.7998 109.201 22.5998 106.001C22.5998 105.401 21.7998 105.301 21.5998 105.901ZM339.4 99.1009C338.5 101.801 337.3 105.301 336.3 106.101C335 107.101 331.2 106.901 328.1 106.601C327.6 106.501 327.4 107.301 327.9 107.501C330.7 108.401 334.2 109.701 334.9 110.901C335.6 112.101 335.4 116.001 335.1 119.001C335.1 119.501 335.8 119.701 336 119.201C337 116.301 338.3 112.601 339.6 111.801C340.8 111.101 345 111.501 348.1 111.801C348.6 111.901 348.8 111.101 348.3 110.901C345.4 110.001 341.4 108.601 340.6 107.501C339.7 106.301 340 102.301 340.3 99.3009C340.3 98.8009 339.6 98.6009 339.4 99.1009Z" stroke="#316474" stroke-linecap="round" stroke-linejoin="round"></path><path d="M99.9997 64.202C98.0997 60.402 95.2997 57.102 91.7997 54.602C85.3997 49.902 76.3997 52.302 71.7997 55.902C69.5997 57.602 68.6997 60.302 66.6997 62.102C65.4997 63.202 63.8997 63.902 62.2997 64.202H62.0997C60.1997 64.502 58.2997 64.002 56.3997 64.202C52.4997 64.502 49.0997 66.502 46.0997 68.902C38.5997 75.002 38.1997 86.202 43.9997 96.002C53.0997 111.602 70.2997 116.902 77.8997 115.602C85.4997 114.302 84.7997 110.302 89.2997 107.202C93.6997 104.302 95.9997 105.702 100.1 102.802" fill="#FCF5EB"></path><path d="M99.9997 64.202C98.0997 60.402 95.2997 57.102 91.7997 54.602C85.3997 49.902 76.3997 52.302 71.7997 55.902C69.5997 57.602 68.6997 60.302 66.6997 62.102C65.4997 63.202 63.8997 63.902 62.2997 64.202H62.0997C60.1997 64.502 58.2997 64.002 56.3997 64.202C52.4997 64.502 49.0997 66.502 46.0997 68.902C38.5997 75.002 38.1997 86.202 43.9997 96.002C53.0997 111.602 70.2997 116.902 77.8997 115.602C85.4997 114.302 84.7997 110.302 89.2997 107.202C93.6997 104.302 95.9997 105.702 100.1 102.802" stroke="#316474" stroke-linecap="round" stroke-linejoin="round"></path><path d="M63.0997 63.9022C63.6997 63.9022 70.7997 56.8022 70.0997 49.6022C69.5997 44.0022 64.2997 36.4022 61.8997 37.0022C60.8997 37.2022 55.1997 45.3022 55.4997 51.1022C55.7997 58.6022 62.6997 63.9022 63.0997 63.9022Z" fill="#73F38F" stroke="#316474" stroke-linecap="round" stroke-linejoin="round"></path><path d="M61.5 82.7012C63.3 86.4012 64.5 95.5012 61.1 97.1012C57.7 98.7012 50.9 92.3012 49.2 88.6012C47.5 84.9012 48.8 80.6012 52.2 79.0012C55.5 77.4012 59.7 79.0012 61.5 82.7012Z" fill="white"></path><path d="M169.7 106.302C165.3 99.2023 157.5 94.9023 149.1 94.9023H148.8C140.4 94.9023 132.7 99.2023 128.2 106.302C127 108.202 126.9 110.602 128 112.502C129.1 114.502 131.1 115.702 133.4 115.702H164.6C166.8 115.702 168.9 114.502 170 112.502C171.1 110.502 170.9 108.202 169.7 106.302ZM233.6 106.302C229.2 99.2023 221.4 94.9023 213 94.9023H212.7C204.3 94.9023 196.6 99.2023 192.1 106.302C190.9 108.202 190.8 110.602 191.9 112.502C193 114.402 195 115.702 197.3 115.702H228.5C230.7 115.702 232.8 114.502 233.9 112.502C235 110.502 234.8 108.202 233.6 106.302Z" fill="#73F38F" stroke="#316474" stroke-linecap="round" stroke-linejoin="round"></path><path d="M291.2 22.6C288 15.2 280.6 10 272 10C263.4 10 256.8 14.2 253.4 21.4L254 23.5C258.1 29.3 260.3 36.3 260.3 43.4V46.1L261 48.6C270.8 54.7 283.7 51.6 289.8 41.8C293.3 36 293.9 28.9 291.2 22.6Z" fill="white"></path><path d="M275.2 36.7016C271 35.4016 265.1 31.2016 265.1 23.6016C265.1 31.2016 271.1 35.4016 275.2 36.7016ZM275.2 36.7016C275.8 41.2016 275.2 46.9016 275.7 51.4016L275.2 36.7016ZM275.2 36.7016C278.4 37.7016 283.2 35.0016 285.6 33.0016C288.3 30.7016 291.5 26.3016 291.1 22.6016M279.4 11.4016C279.3 16.6016 271.4 28.3016 267.9 31.7016L279.4 11.4016ZM272 10.6016C272.3 16.1016 270.3 19.8016 265.1 23.7016L272 10.6016ZM270.2 18.5016C267.9 16.8016 256.8 17.5016 254.9 19.0016C256.7 17.6016 267.9 16.9016 270.2 18.5016ZM275.5 47.6016C269.4 46.7016 263.9 43.4016 260.2 38.4016L275.5 47.6016Z" fill="white"></path><path d="M275.2 36.7016C271 35.4016 265.1 31.2016 265.1 23.6016C265.1 31.2016 271.1 35.4016 275.2 36.7016ZM275.2 36.7016C275.8 41.2016 275.2 46.9016 275.7 51.4016M275.2 36.7016C278.4 37.7016 283.2 35.0016 285.6 33.0016C288.3 30.7016 291.5 26.3016 291.1 22.6016M279.4 11.4016C279.3 16.6016 271.4 28.3016 267.9 31.7016M272 10.6016C272.3 16.1016 270.3 19.8016 265.1 23.7016M275.5 47.6016C269.4 46.7016 263.9 43.4016 260.2 38.4016M270.2 18.5016C267.9 16.8016 256.8 17.5016 254.9 19.0016C256.7 17.6016 267.9 16.9016 270.2 18.5016Z" stroke="#316474" stroke-linecap="round" stroke-linejoin="round"></path><path d="M253.9 22.6016C255.2 23.3016 255.8 23.8016 257.2 24.0016C261.7 24.6016 263.9 23.9016 265.1 23.6016" stroke="#316474" stroke-linecap="round" stroke-linejoin="round"></path></g><path d="M225.8 8.60156H134.8C115.6 8.60156 100 24.2016 100 43.4016V134.402C100 153.602 115.6 169.202 134.8 169.202H225.8C245 169.202 260.6 153.602 260.6 134.402V43.4016C260.6 24.2016 245 8.60156 225.8 8.60156Z" stroke="#316474" stroke-linecap="round" stroke-linejoin="round"></path><path d="M221.6 137.299C223.1 136.099 226.2 133.899 229.9 138.799C233.6 143.699 234.8 146.299 235.3 147.799C235.8 149.299 236.5 151.799 232.9 154.299L223.4 161.299C221.7 154.499 218 148.399 212.8 143.799L221.6 137.299Z" fill="white" stroke="#316474" stroke-linecap="round" stroke-linejoin="round"></path><path d="M194.1 162.498C198.3 163.398 201 169.998 201 169.998C204 170.098 200.1 175.998 200.1 175.998L198.6 178.898L196 179.398C194.2 179.698 190.2 179.898 186.9 179.898L183.9 179.398C183.9 179.398 183 178.898 182.8 176.898L182.2 174.498C183.7 170.098 185.5 165.898 187.6 161.798C187.5 161.898 187.7 161.698 187.6 161.798C189.6 163.198 194.1 162.498 194.1 162.498Z" fill="white"></path><path d="M187.6 161.699C185.5 165.799 183.7 169.999 182.2 174.399L182.8 176.799C183 178.699 183.9 179.299 183.9 179.299L186.9 179.799C190.8 179.799 194.7 179.499 198.6 178.799L200.1 175.899C200.1 175.899 204 169.999 201 169.899C201 169.899 198.3 163.199 194.1 162.399C194.1 162.499 189.6 163.199 187.6 161.699ZM187.6 161.699C187.5 161.899 187.7 161.699 187.6 161.699Z" stroke="#316474" stroke-linecap="round" stroke-linejoin="round"></path><path d="M212.8 143.898C215.9 146.298 221.7 153.098 223.4 161.398L220.1 163.598C211.3 169.798 199.3 178.598 198.7 178.998L197.9 178.898C197.9 178.898 197.4 172.298 194.3 172.198C194.3 172.198 194.4 167.198 190.2 166.398C190.2 166.398 189.9 163.298 187.7 161.898C191.9 157.898 200 152.698 207.8 147.298L212.8 143.898ZM182.7 173.798C187.4 176.098 186.9 179.898 186.9 179.898C186.9 179.898 181.8 179.698 181.2 179.098C180.9 178.698 181.4 176.698 182.3 174.198L182.7 173.798Z" fill="#73F38F" stroke="#316474" stroke-linecap="round" stroke-linejoin="round"></path><path d="M219.6 138.898C224.7 143.398 228.2 149.398 229.6 156.098L219.6 138.898Z" fill="white"></path><path d="M219.6 138.898C224.7 143.398 228.2 149.398 229.6 156.098" stroke="#316474" stroke-linecap="round" stroke-linejoin="round"></path><path d="M214.6 101.501C207.9 90.8008 196.1 84.3008 183.5 84.3008H183C170.4 84.3008 158.6 90.8008 151.9 101.501C150.1 104.301 150 107.901 151.6 110.901C153.2 113.801 156.3 115.701 159.7 115.701H206.7C210.1 115.701 213.2 113.901 214.8 110.901C216.5 108.001 216.4 104.301 214.6 101.501Z" fill="#73F38F" stroke="#316474" stroke-linecap="round" stroke-linejoin="round"></path><mask id="mask1_11581_406869" maskUnits="userSpaceOnUse" x="29" y="118" width="85" height="70" style="mask-type: luminance;"><path d="M114 118H29V187.1H114V118Z" fill="white"></path></mask><g mask="url(#mask1_11581_406869)"><path d="M48.5003 186.602C51.1003 186.202 72.2003 179.402 79.5003 176.402C79.5003 176.402 108.3 171.102 110.6 170.302C114.1 169.002 113.8 168.002 113.3 165.202C112.8 162.402 107.5 129.802 106.4 124.902C105.3 120.302 102.7 121.002 100.2 121.502L100.3 121.402C99.1003 118.102 96.1003 118.502 94.4003 119.102L72.0003 128.702C70.7003 128.702 69.3003 128.402 67.2003 129.102C65.1003 129.902 65.4003 130.602 65.4003 130.602C63.6003 130.102 40.3003 135.002 35.6003 136.002C30.8003 137.002 29.2003 139.302 29.7003 141.502C30.4003 145.002 38.4003 174.302 40.2003 180.402C41.6003 185.002 43.4003 186.302 45.5003 186.402" fill="white"></path><path d="M71.9002 128.6L94.4002 118.9C96.1002 118.2 99.1002 117.9 100.3 121.2M72.0002 128.6C72.0002 128.6 97.9002 121.8 99.7002 121.5C102.4 121 105.2 119.9 106.4 124.8C107.5 129.7 112.8 162.3 113.3 165.1C113.8 167.9 114.1 169 110.6 170.2C108.2 171.1 87.1002 174.5 79.9002 176.2M65.3002 130.5C63.5002 130 40.2002 134.9 35.5002 135.9C30.7002 136.9 29.1002 139.2 29.6002 141.4C30.3002 144.9 38.3002 174.2 40.1002 180.3C41.5002 184.9 43.3002 186.2 45.4002 186.3" stroke="#316474" stroke-linecap="round" stroke-linejoin="round"></path><path d="M48.5003 186.602C45.5003 187.102 44.7003 185.202 43.5003 180.402C42.3003 175.602 33.2003 144.002 32.8003 141.902C32.3003 139.802 32.6003 138.402 37.1003 137.302C40.5003 136.402 65.9003 130.802 65.9003 130.802C65.9003 130.802 65.1003 129.702 67.2003 128.902C69.3003 128.102 70.7003 128.502 72.0003 128.502" stroke="#316474" stroke-linecap="round" stroke-linejoin="round"></path><path d="M79.5 176.301C72.2 179.301 51.1 186.101 48.5 186.501M70.2 137.301L78.6 171.601" stroke="#316474" stroke-linecap="round" stroke-linejoin="round"></path><path d="M56.3003 174.202C55.1003 174.002 54.0003 173.502 52.9003 172.902C51.8003 172.302 51.0003 171.302 50.3003 170.302C49.6003 169.302 49.1003 168.102 48.9003 166.902C48.7003 165.702 48.6003 164.402 48.9003 163.202C49.9003 158.102 54.9003 154.702 60.0003 155.702C61.2003 155.902 62.4003 156.302 63.4003 157.002C64.4003 157.702 65.3003 158.502 66.0003 159.602C66.7003 160.602 67.2003 161.802 67.5003 163.002C67.8003 164.202 67.8003 165.502 67.5003 166.802C67.2003 168.002 66.7003 169.202 66.1003 170.302C64.0003 173.502 60.1003 175.102 56.3003 174.202Z" fill="#73F38F" stroke="#316474" stroke-linecap="round" stroke-linejoin="round"></path><path d="M52.9001 164.801C52.8001 164.501 53.2001 164.201 53.5001 164.101C56.3001 163.201 59.1001 162.001 62.0001 161.201C61.6001 162.301 52.9001 164.801 52.9001 164.801ZM54.3001 169.301C54.3001 169.001 54.6001 168.701 54.9001 168.701C57.8001 167.801 60.6001 166.601 63.5001 165.801C63.0001 167.001 54.4001 169.501 54.3001 169.301ZM47.5001 148.501C47.3001 148.201 47.7001 147.901 48.0001 147.901C50.9001 146.901 54.9001 146.501 57.8001 145.701C54.5001 147.101 51.0001 148.001 47.5001 148.501ZM84.6001 141.101C84.6001 140.801 85.0001 140.601 85.3001 140.601C88.3001 140.101 91.2001 139.601 94.2001 139.301C93.4001 140.401 84.6001 141.101 84.6001 141.101Z" stroke="#316474" stroke-linecap="round" stroke-linejoin="round"></path><path d="M88.6003 136.202C88.5003 135.902 88.3003 135.602 88.0003 135.602C87.9003 135.602 89.6003 144.302 90.7003 144.902C90.2003 141.902 89.3003 139.102 88.6003 136.202ZM90.2003 162.702C89.9003 162.502 90.1003 161.902 90.3003 161.602C92.1003 158.202 93.8003 154.702 95.7003 151.402C94.4003 155.402 92.6003 159.202 90.2003 162.702Z" stroke="#316474" stroke-linecap="round" stroke-linejoin="round"></path><path d="M87.2 154.399C87.4 153.999 88 154.199 88.3 154.399C91.7 156.099 95.3 157.799 98.6 159.799C97 160.599 87.1 154.499 87.2 154.399Z" stroke="#316474" stroke-linecap="round" stroke-linejoin="round"></path></g><path d="M261 48.6C270.8 54.7 283.7 51.8 289.8 42C295.9 32.2 293 19.3 283.2 13.2C279.9 11.1 276 10 272 10C263.4 10 256.8 14.2 253.4 21.4" stroke="#316474" stroke-linecap="round" stroke-linejoin="round"></path><path d="M275.2 36.6984C280.4 31.1984 285.9 19.6984 285.9 15.8984C285.9 19.6984 280.5 31.1984 275.2 36.6984Z" fill="white" stroke="#316474" stroke-linecap="round" stroke-linejoin="round"></path><path d="M285.9 32.8008C286.6 34.6008 286.5 44.0008 286.4 45.9008C286.6 43.9008 286.6 34.6008 285.9 32.8008Z" fill="white" stroke="#316474" stroke-linecap="round" stroke-linejoin="round"></path></g><defs><clipPath id="clip0_11581_406869"><rect width="360" height="200" fill="white"></rect></clipPath></defs></svg>